<svg width="32" height="32" viewBox="0 0 32 32" fill="none" xmlns="http://www.w3.org/2000/svg">
  <!-- Background circle -->
  <circle cx="16" cy="16" r="16" fill="#8B5CF6"/>
  
  <!-- Quiz/Question mark -->
  <path d="M16 8C18.2091 8 20 9.79086 20 12C20 14.2091 18.2091 16 16 16C13.7909 16 12 14.2091 12 12C12 9.79086 13.7909 8 16 8Z" fill="white"/>
  <path d="M16 18C18.2091 18 20 19.7909 20 22C20 24.2091 18.2091 26 16 26C13.7909 26 12 24.2091 12 22C12 19.7909 13.7909 18 16 18Z" fill="white"/>
  
  <!-- Brain/AI element -->
  <circle cx="16" cy="12" r="2" fill="#8B5CF6"/>
  <circle cx="16" cy="22" r="2" fill="#8B5CF6"/>
</svg> 